<svg
        id="pasx-logo"
        width="35"
        height="16"
        viewBox="0 0 35 16"
        fill="none"
        xmlns="http://www.w3.org/2000/svg"
>
    <g clip-path="url(#clip0_1729_12891)">
        <path
                d="M24.1852 8V15.5H24.6026H25.02V8V0.5H24.6026H24.1852V8Z"
                fill="white"
        />
        <path
                d="M18.5355 2.38616C17.2782 2.43444 16.3191 2.94504 15.8896 3.79415C15.691 4.18605 15.6202 4.63872 15.6824 5.11582C15.7376 5.54122 15.896 5.87576 16.1683 6.1427C16.5361 6.50336 17.1164 6.74645 18.0168 6.91741C18.0836 6.9299 18.2517 6.96001 18.3904 6.98329C19.2902 7.13664 19.6356 7.22184 19.9073 7.35815C20.0812 7.44505 20.1975 7.55751 20.2476 7.68587C20.2798 7.76879 20.285 7.79719 20.2844 7.91192C20.2844 8.00677 20.2833 8.02267 20.2694 8.0772C20.1894 8.39129 19.916 8.59405 19.49 8.65539C19.2441 8.69117 18.9005 8.67868 18.6011 8.62415C18.2229 8.55486 17.8821 8.40776 17.5735 8.18C17.3887 8.04312 17.17 7.83297 16.9875 7.61601C16.9616 7.58477 16.9385 7.55978 16.9362 7.55978C16.9333 7.55978 16.5747 7.85967 16.1389 8.22544C15.7031 8.59178 15.3439 8.89337 15.3404 8.89564C15.3335 8.90018 15.3445 8.91211 15.4694 9.04502C15.8102 9.40624 16.2195 9.71124 16.6553 9.92764C17.2805 10.2389 17.9869 10.3968 18.8665 10.4223C19.4612 10.4394 19.9649 10.3763 20.4237 10.2264C20.6022 10.1679 20.8152 10.0753 20.9643 9.99125C21.0627 9.93559 21.2153 9.83336 21.3011 9.76577C21.3989 9.68909 21.5688 9.52154 21.6442 9.42839C21.9873 9.00299 22.1502 8.485 22.1243 7.89943C22.1157 7.71086 22.0967 7.57228 22.057 7.42063C21.8595 6.66069 21.2516 6.19325 20.0835 5.90245C19.7686 5.82407 19.5648 5.78431 18.9897 5.69117C18.3777 5.59177 18.0548 5.50998 17.8297 5.39866C17.5839 5.27712 17.471 5.12093 17.4572 4.88465C17.448 4.71597 17.5044 4.5541 17.6167 4.4263C17.7537 4.27182 17.9869 4.16277 18.2701 4.1213C18.4117 4.10029 18.6276 4.09461 18.8014 4.10654C19.5619 4.15936 20.1198 4.46095 20.5809 5.0664C20.6177 5.11468 20.654 5.16409 20.6621 5.17545C20.6701 5.18738 20.6782 5.19647 20.6805 5.19533C20.6828 5.19476 21.0483 4.91191 21.4934 4.56659L22.3016 3.93899L22.2694 3.90207C21.8923 3.47155 21.5106 3.1586 21.0673 2.91608C20.4606 2.58438 19.7818 2.41399 18.9523 2.38559C18.7709 2.37935 18.7047 2.37935 18.5355 2.38616Z"
                fill="white"
        />
        <path
                d="M0.587891 6.41543V10.3088H1.59822H2.60855L2.6097 9.23652L2.61143 8.16476L3.4692 8.16136C4.37475 8.15795 4.36554 8.15852 4.62057 8.13012C5.46452 8.03754 6.15535 7.74844 6.64526 7.28271C6.93828 7.00384 7.16107 6.65113 7.29405 6.25469C7.43395 5.83724 7.47712 5.34197 7.41552 4.85636C7.32514 4.14583 7.00564 3.57275 6.47831 3.17631C6.06842 2.86791 5.54224 2.66798 4.90208 2.57654C4.80824 2.56291 4.65453 2.54644 4.49104 2.53224C4.43405 2.52769 3.90557 2.52542 2.50089 2.52372L0.587891 2.52145V6.41543ZM4.18305 4.22194C4.44211 4.25488 4.61193 4.30032 4.78176 4.38211C4.91532 4.44685 5.00916 4.51331 5.09954 4.60873C5.26303 4.78139 5.35457 4.99835 5.38969 5.29653C5.40062 5.38854 5.39947 5.61971 5.38681 5.71115C5.35802 5.92811 5.28318 6.12974 5.17783 6.27627C5.13005 6.34159 5.02815 6.44666 4.96598 6.49494C4.72765 6.6784 4.41102 6.77949 3.99595 6.80448C3.94184 6.80789 3.62348 6.81016 3.25504 6.81016H2.60855V5.50952V4.20831L3.35867 4.21058C4.01437 4.21228 4.11742 4.21399 4.18305 4.22194Z"
                fill="white"
        />
        <path
                d="M8.53466 6.41429L7.05457 10.306L8.09656 10.3077C8.66995 10.3083 9.13971 10.3077 9.14087 10.3066C9.14202 10.306 9.24852 10.0027 9.37805 9.63409C9.50758 9.26492 9.61523 8.96048 9.61754 8.95708C9.61984 8.9531 10.0919 8.9514 11.1425 8.9514H12.6641L12.6842 9.00649C12.6946 9.03716 12.8023 9.34273 12.922 9.68521L13.1408 10.3088H14.1845C14.7579 10.3088 15.2276 10.3077 15.2276 10.3066C15.2276 10.3054 14.5644 8.56632 13.7533 6.44269C12.9421 4.31906 12.2738 2.56802 12.2674 2.55155L12.2565 2.52202H11.1356H10.0148L8.53466 6.41429ZM11.2013 4.77968L11.2796 5.07503L11.7286 6.3291C11.9756 7.01918 12.1765 7.58487 12.1748 7.58601C12.1736 7.58714 11.705 7.58771 11.1333 7.58714L10.0936 7.58544L10.5306 6.33591L10.967 5.08638L11.0429 4.78366C11.0844 4.61724 11.1195 4.4815 11.1207 4.48264C11.1218 4.48377 11.1581 4.61781 11.2013 4.77968Z"
                fill="white"
        />
        <path
                d="M26.891 2.52542C26.891 2.52713 27.4626 3.36488 28.1615 4.38665C28.8604 5.40899 29.432 6.24901 29.432 6.25356C29.432 6.25867 28.8132 7.16571 28.0562 8.26984C27.2991 9.37396 26.6751 10.2844 26.6693 10.2935L26.6595 10.3088H27.7839H28.9087L29.7516 9.00251L30.5949 7.69619L30.6111 7.72005C30.6197 7.73368 31.0112 8.32095 31.4809 9.02523L32.3341 10.306L33.4584 10.3077C34.0761 10.3083 34.5821 10.3077 34.5821 10.306C34.5821 10.3037 32.231 6.87207 31.8465 6.31206L31.8068 6.25469L33.0969 4.39119C33.8061 3.36601 34.3864 2.52599 34.3864 2.52485C34.3864 2.52315 33.8832 2.52202 33.2684 2.52202L32.1499 2.52258L31.4015 3.67556C30.9899 4.30997 30.6519 4.82966 30.6502 4.8308C30.6485 4.83194 30.3054 4.31281 29.8874 3.67783L29.1275 2.52258H28.0095C27.3941 2.52202 26.891 2.52372 26.891 2.52542Z"
                fill="white"
        />
    </g>
    <defs>
        <clipPath id="clip0_1729_12891">
            <rect
                    width="34"
                    height="15"
                    fill="white"
                    transform="translate(0.587891 0.5)"
            />
        </clipPath>
    </defs>
</svg>